<svg width="60" height="60" viewBox="0 0 60 60" fill="none" xmlns="http://www.w3.org/2000/svg">
<rect width="60" height="60" rx="30" fill="#030D3C"/>
<path d="M35.31 29.9978C35.31 29.3048 32.3321 24.825 32.3321 24.825C32.0959 24.4178 31.3365 24.4178 30.6368 24.8239C29.937 25.23 29.5612 25.8892 29.7986 26.2976L30.1294 26.8669L31.053 28.47H26.6295L25.0208 28.4677C24.5505 28.4677 24.168 29.154 24.1658 29.9978V30.0022C24.168 30.846 24.5505 31.5323 25.0208 31.5323L26.6295 31.5311H31.053L30.1305 33.1331L29.7986 33.7035C29.5624 34.1108 29.937 34.7711 30.6368 35.1772C31.3365 35.5822 32.0959 35.5823 32.3321 35.175C32.3321 35.175 35.31 30.6952 35.31 30.0022V29.9978ZM30 38.4071C27.7704 38.4071 25.6322 37.5214 24.0557 35.9449C22.4791 34.3684 21.5934 32.2301 21.5934 30.0006C21.5934 27.771 22.4791 25.6328 24.0557 24.0562C25.6322 22.4797 27.7704 21.594 30 21.594C32.2296 21.594 34.3678 22.4797 35.9443 24.0562C37.5209 25.6328 38.4066 27.771 38.4066 30.0006C38.4066 32.2301 37.5209 34.3684 35.9443 35.9449C34.3678 37.5214 32.2296 38.4071 30 38.4071ZM41.1791 30C41.1791 29.6377 41.1619 29.2796 41.1274 28.9256L43.5 27.3337C43.3829 26.7323 43.2251 26.1396 43.0275 25.5596L40.1768 25.3661C39.8778 24.7125 39.5169 24.089 39.099 23.5042L40.3545 20.946C39.9511 20.4831 39.5166 20.0482 39.054 19.6444L36.4946 20.8988C35.9095 20.4808 35.2856 20.1199 34.6316 19.821L34.4381 16.9714C33.8589 16.7743 33.2669 16.6168 32.6663 16.5L31.0744 18.8715C30.359 18.8028 29.6387 18.8028 28.9234 18.8715L27.3349 16.5C26.7319 16.6176 26.1376 16.7762 25.5563 16.9747L25.365 19.8221C24.7106 20.1209 24.0864 20.4818 23.5009 20.8999L20.9437 19.6444C20.4818 20.0494 20.0482 20.4832 19.6432 20.946L20.9021 23.5042C20.4838 24.089 20.1226 24.7125 19.8233 25.3661L16.9725 25.5596C16.7749 26.1396 16.6171 26.7323 16.5 27.3337L18.8726 28.9234C18.8039 29.6391 18.8039 30.3598 18.8726 31.0755L16.5 32.6651C16.617 33.2673 16.7748 33.8608 16.9725 34.4415L19.8233 34.6327C20.1247 35.2905 20.4844 35.9104 20.9021 36.4924L19.6421 39.0518C20.0486 39.5152 20.4836 39.9495 20.9471 40.3545L23.5054 39.0979C24.087 39.5119 24.7091 39.8741 25.3661 40.1745L25.5574 43.0252C26.1345 43.2199 26.7251 43.3819 27.3326 43.5L28.9245 41.1262C29.2789 41.1589 29.6355 41.1803 30 41.1803C30.3611 41.1803 30.7222 41.1577 31.0766 41.1251L32.6685 43.5C33.2684 43.382 33.8597 43.2234 34.4381 43.0252L34.6316 40.1745C35.2886 39.8741 35.9141 39.5119 36.4958 39.0979L39.054 40.3545C39.516 39.9503 39.9495 39.5168 40.3545 39.054L39.1001 36.4958C39.5171 35.913 39.876 35.292 40.1768 34.6327L43.0252 34.4415C43.2237 33.8605 43.3824 33.2666 43.5 32.664L41.1285 31.0755C41.1625 30.718 41.1794 30.3591 41.1791 30ZM41.9194 36.813C42.0465 36.813 42.2738 36.8366 42.2738 36.6712C42.2738 36.5655 42.1331 36.5464 42.0206 36.5464H41.7439V36.813H41.9194ZM42.4054 37.4374H42.2299L41.9194 36.9593H41.745V37.4374H41.5987V36.4001H42.0499C42.2378 36.4001 42.42 36.4507 42.42 36.6735C42.42 36.8782 42.2782 36.9548 42.0915 36.9593L42.4054 37.4374ZM42.7586 36.9232C42.7563 36.7108 42.6705 36.5077 42.5198 36.3579C42.3691 36.208 42.1656 36.1234 41.9531 36.1222C41.7404 36.1231 41.5366 36.2076 41.3857 36.3575C41.2348 36.5074 41.1489 36.7106 41.1465 36.9232C41.1465 37.371 41.5177 37.7276 41.9531 37.7276C42.1662 37.7264 42.3702 37.6414 42.521 37.4908C42.6718 37.3402 42.7571 37.1363 42.7586 36.9232ZM41.0002 36.9232C41.0002 36.3967 41.4199 35.9771 41.9531 35.9771C42.078 35.9761 42.2018 35.9998 42.3174 36.0469C42.4331 36.094 42.5382 36.1635 42.6268 36.2515C42.7154 36.3395 42.7857 36.4441 42.8336 36.5594C42.8816 36.6747 42.9062 36.7984 42.906 36.9232C42.9066 37.0484 42.8823 37.1724 42.8346 37.2881C42.7869 37.4038 42.7167 37.5089 42.628 37.5972C42.5394 37.6855 42.4341 37.7554 42.3182 37.8027C42.2024 37.85 42.0783 37.8738 41.9531 37.8727C41.828 37.8738 41.7039 37.85 41.588 37.8027C41.4722 37.7554 41.3669 37.6855 41.2782 37.5972C41.1896 37.5089 41.1193 37.4038 41.0716 37.2881C41.0239 37.1724 40.9996 37.0484 41.0002 36.9232Z" fill="white"/>
</svg>
