<svg width="130" height="94" viewBox="0 0 130 94" fill="none" xmlns="http://www.w3.org/2000/svg">
<g filter="url(#filter0_i_222_101)">
<rect width="130" height="94" rx="8" fill="white"/>
<mask id="path-2-inside-1_222_101" fill="white">
<path d="M64.1379 23V26.9182C63.5682 27.0183 62.9941 27.212 62.4138 27.4738V24.92H60.6897V28.4192C60.5068 28.5344 60.323 28.6536 60.1385 28.7768C59.7508 29.036 59.3594 29.3144 58.9655 29.6054V26.84H57.2414V30.9428C56.6677 31.4048 56.0922 31.8819 55.5172 32.3614V30.68H53.7931V33.7958C53.211 34.2768 52.6347 34.7438 52.069 35.1868V32.6H50.3448V36.4656C50.2328 36.5432 50.1196 36.623 50.0092 36.6969C49.5298 37.0173 49.0645 37.2973 48.6207 37.5324V36.44H46.8966V38.2368C46.5851 38.3172 46.2958 38.36 46.0345 38.36H45.1724V34.52H40V71H45.1724V40.28H46.0345C46.3209 40.28 46.6082 40.2524 46.8966 40.2018V71H48.6207V39.646C49.1888 39.3895 49.7629 39.0676 50.3448 38.7008V71H52.069V37.5146C52.6394 37.0932 53.2152 36.6429 53.7931 36.1773V71H55.5172V53.72H57.2414V71H58.9655V31.9332C59.5541 31.4726 60.1304 31.0419 60.6897 30.6544V47.96H62.4138V29.5878C63.038 29.2573 63.6194 29.0172 64.1379 28.8834V47.96H65.8621V28.8832C66.3806 29.0172 66.962 29.2573 67.5862 29.5876V47.96H69.3103V30.6544C69.8696 31.042 70.4459 31.4726 71.0345 31.9332V71H72.7586V53.72H74.4828V71H76.2069V36.1772C76.7848 36.6428 77.3606 37.0932 77.931 37.5146V71H79.6552V38.7008C80.2371 39.0675 80.8112 39.3896 81.3793 39.646V71H83.1034V40.2018C83.3918 40.2524 83.6791 40.28 83.9655 40.28H84.8276V71H90V34.52H84.8276V38.36H83.9655C83.7042 38.36 83.4149 38.3172 83.1034 38.2368V36.44H81.3793V37.5322C80.9353 37.297 80.4701 37.0172 79.9908 36.697C79.8803 36.623 79.7672 36.5432 79.6552 36.4654V32.6H77.931V35.1868C77.3651 34.744 76.789 34.2768 76.2069 33.7958V30.68H74.4828V32.3614C73.9078 31.8819 73.3323 31.405 72.7586 30.9427V26.84H71.0345V29.6054C70.6407 29.3145 70.2492 29.0359 69.8615 28.7769C69.6792 28.6551 69.4954 28.5359 69.3103 28.4193V24.92H67.5862V27.474C67.0059 27.212 66.4318 27.0183 65.8621 26.9184V23H64.1379ZM42.5862 26.84C41.1476 26.84 40 28.118 40 29.72C40 31.322 41.1476 32.6 42.5862 32.6C44.0248 32.6 45.1724 31.322 45.1724 29.72C45.1724 28.118 44.0248 26.84 42.5862 26.84ZM87.4138 26.84C85.9752 26.84 84.8276 28.118 84.8276 29.72C84.8276 31.322 85.9752 32.6 87.4138 32.6C88.8524 32.6 90 31.322 90 29.72C90 28.118 88.8524 26.84 87.4138 26.84ZM57.2414 33.3242V51.8H55.5172V34.7586C55.6897 34.6148 55.8624 34.4718 56.0345 34.328C56.4386 33.9908 56.8409 33.655 57.2414 33.3242ZM72.7586 33.3242C73.159 33.655 73.5614 33.9908 73.9655 34.328C74.1376 34.472 74.3103 34.6148 74.4828 34.7586V51.8H72.7586V33.3242ZM60.6897 49.88V53.72H69.3103V49.88H60.6897ZM60.6897 55.64V71H62.4138V55.64H60.6897ZM64.1379 55.64V71H65.8621V55.64H64.1379ZM67.5862 55.64V71H69.3103V55.64H67.5862Z"/>
</mask>
<path d="M64.1379 23V26.9182C63.5682 27.0183 62.9941 27.212 62.4138 27.4738V24.92H60.6897V28.4192C60.5068 28.5344 60.323 28.6536 60.1385 28.7768C59.7508 29.036 59.3594 29.3144 58.9655 29.6054V26.84H57.2414V30.9428C56.6677 31.4048 56.0922 31.8819 55.5172 32.3614V30.68H53.7931V33.7958C53.211 34.2768 52.6347 34.7438 52.069 35.1868V32.6H50.3448V36.4656C50.2328 36.5432 50.1196 36.623 50.0092 36.6969C49.5298 37.0173 49.0645 37.2973 48.6207 37.5324V36.44H46.8966V38.2368C46.5851 38.3172 46.2958 38.36 46.0345 38.36H45.1724V34.52H40V71H45.1724V40.28H46.0345C46.3209 40.28 46.6082 40.2524 46.8966 40.2018V71H48.6207V39.646C49.1888 39.3895 49.7629 39.0676 50.3448 38.7008V71H52.069V37.5146C52.6394 37.0932 53.2152 36.6429 53.7931 36.1773V71H55.5172V53.72H57.2414V71H58.9655V31.9332C59.5541 31.4726 60.1304 31.0419 60.6897 30.6544V47.96H62.4138V29.5878C63.038 29.2573 63.6194 29.0172 64.1379 28.8834V47.96H65.8621V28.8832C66.3806 29.0172 66.962 29.2573 67.5862 29.5876V47.96H69.3103V30.6544C69.8696 31.042 70.4459 31.4726 71.0345 31.9332V71H72.7586V53.72H74.4828V71H76.2069V36.1772C76.7848 36.6428 77.3606 37.0932 77.931 37.5146V71H79.6552V38.7008C80.2371 39.0675 80.8112 39.3896 81.3793 39.646V71H83.1034V40.2018C83.3918 40.2524 83.6791 40.28 83.9655 40.28H84.8276V71H90V34.52H84.8276V38.36H83.9655C83.7042 38.36 83.4149 38.3172 83.1034 38.2368V36.44H81.3793V37.5322C80.9353 37.297 80.4701 37.0172 79.9908 36.697C79.8803 36.623 79.7672 36.5432 79.6552 36.4654V32.6H77.931V35.1868C77.3651 34.744 76.789 34.2768 76.2069 33.7958V30.68H74.4828V32.3614C73.9078 31.8819 73.3323 31.405 72.7586 30.9427V26.84H71.0345V29.6054C70.6407 29.3145 70.2492 29.0359 69.8615 28.7769C69.6792 28.6551 69.4954 28.5359 69.3103 28.4193V24.92H67.5862V27.474C67.0059 27.212 66.4318 27.0183 65.8621 26.9184V23H64.1379ZM42.5862 26.84C41.1476 26.84 40 28.118 40 29.72C40 31.322 41.1476 32.6 42.5862 32.6C44.0248 32.6 45.1724 31.322 45.1724 29.72C45.1724 28.118 44.0248 26.84 42.5862 26.84ZM87.4138 26.84C85.9752 26.84 84.8276 28.118 84.8276 29.72C84.8276 31.322 85.9752 32.6 87.4138 32.6C88.8524 32.6 90 31.322 90 29.72C90 28.118 88.8524 26.84 87.4138 26.84ZM57.2414 33.3242V51.8H55.5172V34.7586C55.6897 34.6148 55.8624 34.4718 56.0345 34.328C56.4386 33.9908 56.8409 33.655 57.2414 33.3242ZM72.7586 33.3242C73.159 33.655 73.5614 33.9908 73.9655 34.328C74.1376 34.472 74.3103 34.6148 74.4828 34.7586V51.8H72.7586V33.3242ZM60.6897 49.88V53.72H69.3103V49.88H60.6897ZM60.6897 55.64V71H62.4138V55.64H60.6897ZM64.1379 55.64V71H65.8621V55.64H64.1379ZM67.5862 55.64V71H69.3103V55.64H67.5862Z" fill="#1225F5" stroke="#1225F5" stroke-width="2" mask="url(#path-2-inside-1_222_101)"/>
</g>
<defs>
<filter id="filter0_i_222_101" x="0" y="0" width="130" height="98" filterUnits="userSpaceOnUse" color-interpolation-filters="sRGB">
<feFlood flood-opacity="0" result="BackgroundImageFix"/>
<feBlend mode="normal" in="SourceGraphic" in2="BackgroundImageFix" result="shape"/>
<feColorMatrix in="SourceAlpha" type="matrix" values="0 0 0 0 0 0 0 0 0 0 0 0 0 0 0 0 0 0 127 0" result="hardAlpha"/>
<feOffset dy="4"/>
<feGaussianBlur stdDeviation="3.5"/>
<feComposite in2="hardAlpha" operator="arithmetic" k2="-1" k3="1"/>
<feColorMatrix type="matrix" values="0 0 0 0 0 0 0 0 0 0 0 0 0 0 0 0 0 0 0.07 0"/>
<feBlend mode="normal" in2="shape" result="effect1_innerShadow_222_101"/>
</filter>
</defs>
</svg>
